FILE "Contra_DEV_Earok.iso" BINARY
  TRACK 01 MODE1/2048
    INDEX 01 00:00:00
FILE "cdaudio_track_2.WAV" WAV
  TRACK 02 AUDIO
    PREGAP 00:02:00
    INDEX 01 00:00:00
FILE "cdaudio_track_3.WAV" WAV
  TRACK 03 AUDIO
    PREGAP 00:02:00
    INDEX 01 00:00:00
